<?xml version="1.0" encoding="iso-8859-1"?>
<!-- Generator: Adobe Illustrator 19.0.0, SVG Export Plug-In . SVG Version: 6.00 Build 0)  -->
<svg version="1.1" id="Capa_1" xmlns="http://www.w3.org/2000/svg" xmlns:xlink="http://www.w3.org/1999/xlink" x="0px" y="0px"
	 viewBox="0 0 512 512" style="enable-background:new 0 0 512 512;" xml:space="preserve">
<g>
	<g>
		<path d="M341.063,152.89c-23.235-22.915-53.978-35.257-86.679-34.83c-31.177,0.435-60.679,12.81-83.071,34.845
			c-22.396,22.04-35.235,51.341-36.151,82.505c-1.094,37.274,14.654,72.394,43.207,96.354c10.638,8.926,16.739,22.208,16.739,36.445
			v53.837c0,14.305,11.638,25.942,25.942,25.942h70.111c14.306,0,25.942-11.638,25.942-25.942v-53.837
			c0-14.228,6.116-27.524,16.781-36.481c27.465-23.068,43.218-56.85,43.218-92.682C377.103,206.407,364.303,175.811,341.063,152.89z
			 M297.106,422.046L297.106,422.046c-0.001,3.277-2.667,5.943-5.944,5.943h-70.111c-3.277,0-5.943-2.666-5.943-5.943v-43.837
			h81.998V422.046z M321.022,316.414c-12.653,10.628-20.813,25.489-23.193,41.796H266.12v-79.897c0-5.523-4.478-10-10-10
			s-10,4.477-10,10v79.897h-31.734c-2.376-16.311-10.525-31.164-23.16-41.766c-23.838-20.003-36.985-49.326-36.071-80.447
			c1.591-54.164,45.302-97.184,99.51-97.939c27.216-0.394,52.96,9.944,72.355,29.072c19.399,19.132,30.084,44.672,30.084,71.915
			C357.103,268.955,343.953,297.154,321.022,316.414z"/>
	</g>
</g>
<g>
	<g>
		<path d="M219.713,230.624c-1.86-1.86-4.439-2.92-7.07-2.92c-2.63,0-5.21,1.06-7.069,2.92c-1.86,1.87-2.931,4.44-2.931,7.08
			c0,2.63,1.07,5.21,2.931,7.07c1.859,1.86,4.439,2.93,7.069,2.93c2.631,0,5.21-1.07,7.07-2.93c1.86-1.87,2.93-4.44,2.93-7.07
			C222.643,235.074,221.574,232.494,219.713,230.624z"/>
	</g>
</g>
<g>
	<g>
		<path d="M263.052,230.624c-1.859-1.86-4.439-2.92-7.069-2.92c-2.631,0-5.21,1.06-7.07,2.92c-1.86,1.86-2.93,4.44-2.93,7.08
			c0,2.63,1.069,5.2,2.93,7.07c1.86,1.86,4.439,2.93,7.07,2.93c2.63,0,5.21-1.07,7.069-2.93c1.86-1.87,2.931-4.44,2.931-7.07
			C265.983,235.064,264.913,232.484,263.052,230.624z"/>
	</g>
</g>
<g>
	<g>
		<path d="M306.391,230.624c-1.859-1.86-4.439-2.93-7.069-2.93c-2.641,0-5.21,1.07-7.07,2.93c-1.86,1.86-2.93,4.44-2.93,7.08
			c0,2.63,1.069,5.21,2.93,7.07c1.861,1.86,4.43,2.93,7.07,2.93c2.63,0,5.21-1.07,7.069-2.93c1.86-1.87,2.931-4.44,2.931-7.07
			C309.322,235.064,308.252,232.494,306.391,230.624z"/>
	</g>
</g>
<g>
	<g>
		<path d="M502,0.001H370.004c-5.522,0-10,4.477-10,10v127.996c0,5.523,4.478,10,10,10h75.984v33.999H407.84
			c-5.522,0-10,4.477-10,10s4.478,10,10,10h48.148c5.522,0,10-4.477,10-10v-43.999H502c5.522,0,10-4.477,10-10V10
			C512,4.477,507.522,0.001,502,0.001z M492.001,127.997H380.004V20h111.997V127.997z"/>
	</g>
</g>
<g>
	<g>
		<path d="M464.001,85.166h-55.998c-5.522,0-10,4.477-10,10s4.477,10,10,10h55.998c5.522,0,10-4.477,10-10
			S469.523,85.166,464.001,85.166z"/>
	</g>
</g>
<g>
	<g>
		<path d="M464.001,45.167h-55.998c-5.522,0-10,4.477-10,10c0,5.523,4.477,10,10,10h55.998c5.522,0,10-4.477,10-10
			C474.001,49.644,469.523,45.167,464.001,45.167z"/>
	</g>
</g>
<g>
	<g>
		<path d="M141.996,0.001H10c-5.522,0-10,4.477-10,10v127.996c0,5.523,4.478,10,10,10h36.013v43.999c0,5.523,4.478,10,10,10h48.148
			c5.522,0,10-4.477,10-10s-4.478-10-10-10H66.012v-33.999h75.984c5.522,0,10-4.477,10-10V10
			C151.996,4.477,147.518,0.001,141.996,0.001z M131.996,127.997H19.999V20h111.997V127.997z"/>
	</g>
</g>
<g>
	<g>
		<path d="M103.997,85.166H47.999c-5.522,0-10,4.477-10,10s4.478,10,10,10h55.998c5.522,0,10-4.477,10-10
			S109.519,85.166,103.997,85.166z"/>
	</g>
</g>
<g>
	<g>
		<path d="M103.997,45.167H47.999c-5.522,0-10,4.477-10,10c0,5.523,4.478,10,10,10h55.998c5.522,0,10-4.477,10-10
			C113.997,49.644,109.519,45.167,103.997,45.167z"/>
	</g>
</g>
<g>
	<g>
		<path d="M141.996,364.004H66.012v-33.999h28.485c5.522,0,10-4.477,10-10c0-5.523-4.478-10-10-10H56.012c-5.522,0-10,4.477-10,10
			v43.999H10c-5.522,0-10,4.477-10,10V502c0,5.523,4.478,10,10,10h131.996c5.522,0,10-4.477,10-10V374.003
			C151.996,368.48,147.518,364.004,141.996,364.004z M131.996,492H19.999V384.003h111.997V492z"/>
	</g>
</g>
<g>
	<g>
		<path d="M103.997,406.834H47.999c-5.522,0-10,4.477-10,10c0,5.523,4.478,10,10,10h55.998c5.522,0,10-4.477,10-10
			C113.997,411.311,109.519,406.834,103.997,406.834z"/>
	</g>
</g>
<g>
	<g>
		<path d="M103.997,446.833H47.999c-5.522,0-10,4.477-10,10c0,5.523,4.478,10,10,10h55.998c5.522,0,10-4.477,10-10
			C113.997,451.31,109.519,446.833,103.997,446.833z"/>
	</g>
</g>
<g>
	<g>
		<path d="M502,364.004h-36.013v-43.999c0-5.523-4.478-10-10-10H407.84c-5.522,0-10,4.477-10,10c0,5.523,4.478,10,10,10h38.148
			v33.999h-75.984c-5.522,0-10,4.477-10,10V502c0,5.523,4.478,10,10,10H502c5.522,0,10-4.477,10-10V374.003
			C512,368.48,507.522,364.004,502,364.004z M492.001,492H380.004V384.003h111.997V492z"/>
	</g>
</g>
<g>
	<g>
		<path d="M464.001,406.834h-55.998c-5.523,0-10,4.477-10,10c0,5.523,4.478,10,10,10h55.998c5.522,0,10-4.477,10-10
			C474.001,411.311,469.523,406.834,464.001,406.834z"/>
	</g>
</g>
<g>
	<g>
		<path d="M464.001,446.833h-55.998c-5.522,0-10,4.477-10,10c0,5.523,4.478,10,10,10h55.998c5.522,0,10-4.477,10-10
			C474.001,451.31,469.523,446.833,464.001,446.833z"/>
	</g>
</g>
<g>
	<g>
		<path d="M135.065,312.932c-1.859-1.86-4.43-2.93-7.069-2.93c-2.641,0-5.21,1.07-7.07,2.93c-1.861,1.86-2.93,4.44-2.93,7.07
			s1.069,5.21,2.93,7.07c1.86,1.87,4.44,2.93,7.07,2.93s5.21-1.06,7.069-2.93c1.86-1.86,2.931-4.44,2.931-7.07
			S136.926,314.792,135.065,312.932z"/>
	</g>
</g>
<g>
</g>
<g>
</g>
<g>
</g>
<g>
</g>
<g>
</g>
<g>
</g>
<g>
</g>
<g>
</g>
<g>
</g>
<g>
</g>
<g>
</g>
<g>
</g>
<g>
</g>
<g>
</g>
<g>
</g>
</svg>
