<?xml version="1.0" encoding="iso-8859-1"?>
<!-- Generator: Adobe Illustrator 17.1.0, SVG Export Plug-In . SVG Version: 6.00 Build 0)  -->
<!DOCTYPE svg PUBLIC "-//W3C//DTD SVG 1.1//EN" "http://www.w3.org/Graphics/SVG/1.1/DTD/svg11.dtd">
<svg version="1.1" id="Capa_1" xmlns="http://www.w3.org/2000/svg" xmlns:xlink="http://www.w3.org/1999/xlink" x="0px" y="0px"
	 viewBox="0 0 174 174" style="enable-background:new 0 0 174 174;" xml:space="preserve">
<path style="fill:#000002;" d="M171.5,163.641H2.5c-1.381,0-2.5-1.119-2.5-2.5V12.859c0-1.381,1.119-2.5,2.5-2.5h151.672
	c1.381,0,2.5,1.119,2.5,2.5v73.927H171.5c1.381,0,2.5,1.119,2.5,2.5v71.855C174,162.522,172.881,163.641,171.5,163.641z
	 M45.5,158.641H169V91.786h-51.701c-1.381,0-2.5-1.119-2.5-2.5v-4.813h-6.172c-1.381,0-2.5-1.119-2.5-2.5s1.119-2.5,2.5-2.5h6.172
	V63.306c0-1.381,1.119-2.5,2.5-2.5s2.5,1.119,2.5,2.5v23.48h14.529V15.359h-14.529v18.28c0,1.381-1.119,2.5-2.5,2.5
	s-2.5-1.119-2.5-2.5v-7.667H75.5c-1.381,0-2.5-1.119-2.5-2.5v-8.113h-9.127v11.613c0,1.381-1.119,2.5-2.5,2.5s-2.5-1.119-2.5-2.5
	V15.359h-2.706v6.447c0,1.381-1.119,2.5-2.5,2.5h-0.779c0.447,1.021,0.696,2.149,0.696,3.333v6.5c0,4.595-3.738,8.333-8.333,8.333
	c-4.595,0-8.333-3.738-8.333-8.333v-6.5c0-1.185,0.249-2.312,0.696-3.333h-0.779c-1.381,0-2.5-1.119-2.5-2.5v-6.447H25.25v33.113
	c0,1.381-1.119,2.5-2.5,2.5H19.5V65.01h39.373V53.472c0-1.381,1.119-2.5,2.5-2.5s2.5,1.119,2.5,2.5v26h6.172
	c1.381,0,2.5,1.119,2.5,2.5s-1.119,2.5-2.5,2.5h-6.172v12.25c0,1.381-1.119,2.5-2.5,2.5s-2.5-1.119-2.5-2.5V70.01H23.167v71.796H43
	c1.381,0,2.5,1.119,2.5,2.5V158.641z M5,158.641h35.5v-11.835H20.667c-1.381,0-2.5-1.119-2.5-2.5v-43.5H5V158.641z M5,95.806h13.167
	V70.01H5V95.806z M148,86.786h3.672V15.359H148V86.786z M139.328,86.786H143V15.359h-3.672V86.786z M5,64.139h9.5V50.972H5V64.139z
	 M17,45.972h3.25V15.359H5v30.613H17z M45.25,24.306c-1.838,0-3.333,1.496-3.333,3.333v6.5c0,1.838,1.495,3.333,3.333,3.333
	s3.333-1.495,3.333-3.333v-6.5C48.583,25.802,47.088,24.306,45.25,24.306z M78,20.972h36.799v-5.613H78V20.972z M45.25,19.306h5.917
	v-3.947H39.333v3.947H45.25z M99.956,151.222H79.911c-1.381,0-2.5-1.119-2.5-2.5V102.91c0-1.381,1.119-2.5,2.5-2.5h20.045
	c1.381,0,2.5,1.119,2.5,2.5v45.813C102.456,150.103,101.336,151.222,99.956,151.222z M82.411,146.222h15.045v-2.5h-8.873
	c-1.381,0-2.5-1.119-2.5-2.5V110.41c0-1.381,1.119-2.5,2.5-2.5h8.873v-2.5H82.411V146.222z M91.083,138.722h6.373V112.91h-6.373
	V138.722z M154.172,149.722c-1.381,0-2.5-1.119-2.5-2.5v-43c0-1.381,1.119-2.5,2.5-2.5s2.5,1.119,2.5,2.5v7.756
	c1.3,0.088,2.328,1.171,2.328,2.494v22.5c0,1.323-1.027,2.406-2.328,2.494v7.756C156.672,148.603,155.553,149.722,154.172,149.722z
	 M130.071,146.722c-7.951,0-14.179-8.565-14.179-19.5s6.228-19.5,14.179-19.5s14.179,8.565,14.179,19.5
	S138.022,146.722,130.071,146.722z M130.071,112.722c-4.976,0-9.179,6.64-9.179,14.5s4.204,14.5,9.179,14.5s9.179-6.64,9.179-14.5
	S135.046,112.722,130.071,112.722z"/>
<g>
</g>
<g>
</g>
<g>
</g>
<g>
</g>
<g>
</g>
<g>
</g>
<g>
</g>
<g>
</g>
<g>
</g>
<g>
</g>
<g>
</g>
<g>
</g>
<g>
</g>
<g>
</g>
<g>
</g>
</svg>
