<?xml version="1.0" encoding="iso-8859-1"?>
<!-- Generator: Adobe Illustrator 19.0.0, SVG Export Plug-In . SVG Version: 6.00 Build 0)  -->
<svg version="1.1" id="Capa_1" xmlns="http://www.w3.org/2000/svg" xmlns:xlink="http://www.w3.org/1999/xlink" x="0px" y="0px"
	 viewBox="0 0 512 512" style="enable-background:new 0 0 512 512;" xml:space="preserve">
<g>
	<g>
		<path d="M205.543,78.504H84.517c-4.143,0-7.5,3.358-7.5,7.5v187.832c0,4.142,3.357,7.5,7.5,7.5h121.025c4.143,0,7.5-3.358,7.5-7.5
			V86.004C213.043,81.862,209.686,78.504,205.543,78.504z M92.017,93.504h45.512v31.984H92.017V93.504z M137.53,266.336H92.017
			v-31.88h45.513V266.336z M137.53,219.456L137.53,219.456H92.017v-31.984h45.513V219.456z M137.53,172.472L137.53,172.472H92.017
			v-31.984h45.513V172.472z M198.043,266.336H152.53v-31.88h45.513V266.336z M198.043,219.456H152.53v-31.984h45.513V219.456z
			 M198.043,172.472H152.53v-31.984h45.513V172.472z M198.043,125.488H152.53V93.504h45.513V125.488z"/>
	</g>
</g>
<g>
	<g>
		<path d="M501.363,117.157H373.093V51.952h128.269c4.143,0,7.5-3.358,7.5-7.5V7.5c0-4.143-3.357-7.5-7.5-7.5H10.637
			c-4.143,0-7.5,3.357-7.5,7.5v36.952c0,4.142,3.357,7.5,7.5,7.5h20.937v176.404c0,4.142,3.357,7.5,7.5,7.5s7.5-3.358,7.5-7.5
			V51.952h311.52v65.204H255.999c-4.143,0-7.5,3.357-7.5,7.5v183.231H46.573v-49.531c0-4.142-3.357-7.5-7.5-7.5
			c-4.143,0-7.5,3.358-7.5,7.5v49.531H10.637c-4.143,0-7.5,3.358-7.5,7.5v36.953c0,4.142,3.357,7.5,7.5,7.5h20.937V504.5
			c0,4.142,3.357,7.5,7.5,7.5h432.307c4.143,0,7.5-3.358,7.5-7.5V198.242h22.481c4.143,0,7.5-3.358,7.5-7.5v-66.085
			C508.863,120.514,505.506,117.157,501.363,117.157z M18.137,36.952V15h475.725v21.952h-0.001H18.137z M137.53,497H92.017V387.722
			h45.513V497z M314.585,497H152.53V380.222c0-4.142-3.357-7.5-7.5-7.5H84.517c-4.143,0-7.5,3.358-7.5,7.5V497H46.573V359.84
			h268.012V497z M314.585,344.841H18.137v-21.953h296.448V344.841z M389.233,497h-59.647v-63.439h59.647V497z M389.233,418.561
			h-59.647v-63.44h59.647V418.561z M389.233,340.121h-59.647v-63.439h59.647V340.121z M389.233,261.681h-59.647v-63.439h59.647
			V261.681z M463.879,497h-59.647v-63.439h59.647V497z M463.879,418.561h-59.647v-63.44h59.647V418.561z M463.881,340.121h-59.647
			v-63.439h59.647V340.121z M463.881,261.681h-59.647v-63.439h59.647V261.681z M493.861,183.242c0,0-171.69,0-171.776,0
			c-4.08,0-7.5,3.424-7.5,7.5v117.146h-51.086V132.156h230.362V183.242z"/>
	</g>
</g>
<g>
</g>
<g>
</g>
<g>
</g>
<g>
</g>
<g>
</g>
<g>
</g>
<g>
</g>
<g>
</g>
<g>
</g>
<g>
</g>
<g>
</g>
<g>
</g>
<g>
</g>
<g>
</g>
<g>
</g>
</svg>
